<?xml version="1.0" standalone="no"?>
<!DOCTYPE svg PUBLIC "-//W3C//DTD SVG 20010904//EN"
 "http://www.w3.org/TR/2001/REC-SVG-20010904/DTD/svg10.dtd">
<svg version="1.0" xmlns="http://www.w3.org/2000/svg"
 width="260.000000pt" height="260.000000pt" viewBox="0 0 260.000000 260.000000"
 preserveAspectRatio="xMidYMid meet">
<metadata>
Created by potrace 1.14, written by Peter Selinger 2001-2017
</metadata>
<g transform="translate(0.000000,260.000000) scale(0.100000,-0.100000)"
fill="#000000" stroke="none">
<path d="M0 1300 l0 -1300 1300 0 1300 0 0 1300 0 1300 -1300 0 -1300 0 0
-1300z m1475 911 c131 -39 195 -72 218 -111 32 -54 15 -126 -39 -169 -39 -31
-129 -29 -193 3 -27 14 -87 33 -133 42 -133 28 -155 17 -287 -131 -41 -46
-110 -161 -100 -168 2 -1 24 -19 49 -38 78 -61 212 -145 290 -181 41 -19 106
-60 144 -91 38 -30 109 -76 157 -102 134 -70 192 -155 225 -326 29 -154 4
-235 -93 -296 -39 -26 -75 -36 -198 -58 -82 -14 -175 -31 -205 -37 -145 -29
-544 -15 -647 23 -72 27 -103 54 -103 89 0 22 7 31 30 42 28 12 40 28 22 28
-18 0 -95 75 -133 129 -22 31 -55 75 -74 99 -76 94 -24 212 93 212 54 0 96
-31 163 -120 41 -54 71 -83 111 -105 30 -16 76 -48 102 -70 26 -22 58 -45 69
-51 93 -49 134 -53 260 -29 43 8 95 15 115 15 20 0 62 7 94 16 53 15 59 20 68
53 5 20 10 59 10 87 l0 52 -72 42 c-40 24 -100 64 -133 90 -58 45 -322 181
-432 222 -29 10 -53 22 -53 26 0 4 -24 20 -53 35 -53 29 -124 112 -147 171
-15 40 -13 210 3 249 33 77 140 177 227 212 37 15 93 47 126 72 122 92 181
113 309 110 79 -2 123 -10 210 -36z m763 -41 c26 -12 49 -32 60 -51 9 -17 31
-49 49 -71 18 -21 35 -54 38 -72 14 -70 -49 -146 -121 -146 -18 0 -43 -10 -60
-25 -80 -68 -199 -33 -248 75 -14 30 -37 75 -51 100 -44 76 -26 144 50 191 44
27 222 27 283 -1z m-22 -465 c41 -28 48 -126 41 -581 -5 -349 -4 -419 8 -449
20 -47 19 -84 -5 -122 -27 -45 -73 -66 -127 -60 -50 5 -76 26 -129 103 l-36
52 6 89 c3 48 11 131 17 183 7 52 13 230 14 394 l1 300 54 47 c38 34 65 49 90
52 19 2 37 4 40 5 3 1 15 -5 26 -13z"/>
</g>
</svg>
